<svg width="25" height="25" viewBox="0 0 25 25" fill="none" xmlns="http://www.w3.org/2000/svg">
<path d="M19.5312 14.9844C19.5312 16.901 18.7699 18.7391 17.4146 20.0943C16.0594 21.4496 14.2213 22.2109 12.3047 22.2109C10.3881 22.2109 8.54998 21.4496 7.19474 20.0943C5.83949 18.7391 5.07813 16.901 5.07812 14.9844C5.07813 8.66016 10.9375 2.78906 12.3047 2.78906C13.6719 2.78906 19.5312 8.66016 19.5312 14.9844Z" fill="#231F20"/>
<path d="M11.4453 13.3086C11.4453 14.6055 10.625 15.2813 9.72656 15.2813C8.82812 15.2813 8.03906 14.5742 8.03906 13.4102C8.03906 12.2461 8.71484 11.457 9.77344 11.457C10.832 11.457 11.4453 12.25 11.4453 13.3086ZM9.10156 13.375C9.10156 14.0234 9.32031 14.4922 9.74219 14.4922C10.1641 14.4922 10.3516 14.0742 10.3516 13.375C10.3516 12.7461 10.1797 12.2578 9.73047 12.2578C9.28125 12.2578 9.11719 12.7578 9.11719 13.375H9.10156ZM16.7969 15.8867C16.7969 17.1836 15.9766 17.8594 15.0781 17.8594C14.1797 17.8594 13.3984 17.1523 13.3906 15.9883C13.3828 14.8242 14.0664 14.0352 15.125 14.0352C16.1836 14.0352 16.7969 14.8438 16.7969 15.8867ZM14.4805 15.9531C14.4805 16.6016 14.6914 17.0703 15.1094 17.0703C15.5273 17.0703 15.7188 16.6523 15.7188 15.9531C15.7188 15.3242 15.5547 14.8359 15.1094 14.8359C14.6641 14.8359 14.4961 15.332 14.4961 15.9531H14.4805Z" fill="#231F20"/>
<path d="M14.3359 11.5977L10.7227 17.4688" stroke="#231F20" stroke-width="2" stroke-linecap="round" stroke-linejoin="round"/>
</svg>
