<svg width="19" height="19" viewBox="0 0 19 19" fill="none" xmlns="http://www.w3.org/2000/svg">
<path d="M9.5 0C4.275 0 0 4.275 0 9.5C0 14.725 4.275 19 9.5 19C14.725 19 19 14.725 19 9.5C19 4.275 14.725 0 9.5 0ZM9.5 17.4167C6.57083 17.4167 4.0375 15.8333 2.6125 13.4583H8.075C8.3125 14.25 8.86667 14.25 9.42083 14.25C9.975 14.25 10.5292 14.25 10.7667 13.4583H16.2292C14.9625 15.8333 12.4292 17.4167 9.5 17.4167ZM8.70833 12.6667C8.70833 12.1917 8.70833 11.875 9.5 5.54167C10.2917 11.875 10.2917 12.1917 10.2917 12.6667C10.2917 13.1417 9.975 13.4583 9.5 13.4583C9.025 13.4583 8.70833 13.1417 8.70833 12.6667ZM16.7833 12.6667H11.0833C11.0833 11.875 11.0833 9.5 9.5 3.16667C7.91667 9.5 7.91667 11.875 7.91667 12.6667H2.21667C1.82083 11.875 1.58333 11.0833 1.58333 9.5H2.77083C3.00833 9.5 3.16667 9.34167 3.16667 9.10417C3.16667 8.86667 3.00833 8.70833 2.77083 8.70833H1.6625C1.74167 7.91667 2.1375 6.49167 2.69167 5.54167L3.72083 6.09583C3.87917 6.175 4.11667 6.175 4.275 5.9375C4.35417 5.77917 4.275 5.54167 4.0375 5.4625L3.0875 4.90833C3.72083 3.95833 4.59167 3.24583 5.54167 2.6125L6.09583 3.64167C6.25417 3.87917 6.49167 3.95833 6.65 3.8C6.80833 3.72083 6.8875 3.48333 6.80833 3.24583L6.25417 2.29583C7.20417 1.82083 8.3125 1.58333 9.5 1.58333C10.6875 1.58333 11.7958 1.82083 12.7458 2.29583L12.1917 3.24583C12.1125 3.40417 12.1125 3.64167 12.35 3.8C12.5875 3.95833 12.7458 3.87917 12.9042 3.64167L13.4583 2.6125C14.4083 3.16667 15.2792 3.95833 15.9125 4.82917L14.9625 5.38333C14.8042 5.4625 14.725 5.7 14.8042 5.9375C14.8833 6.09583 15.1208 6.175 15.3583 6.09583L16.3875 5.54167C16.9417 6.49167 17.3375 7.91667 17.4167 8.70833H16.3083C16.0708 8.70833 15.9125 8.86667 15.9125 9.10417C15.9125 9.34167 16.0708 9.5 16.3083 9.5H17.4167C17.4167 11.0833 17.1792 11.875 16.7833 12.6667Z" fill="#231F20"/>
</svg>
