<svg width="50" height="50" viewBox="0 0 50 50" fill="none" xmlns="http://www.w3.org/2000/svg">
<path d="M25 23.1151C25.5762 23.1151 26.0449 22.7343 26.0449 22.2753V16.621C26.0449 16.1522 25.5762 15.7811 25 15.7811C24.4238 15.7811 23.9551 16.162 23.9551 16.621V22.2753C23.9551 22.744 24.4238 23.1151 25 23.1151Z" fill="#231F20"/>
<path d="M14.3945 32.1093H8.62305C8.14453 32.1093 7.76367 32.578 7.76367 33.1444C7.76367 33.7108 8.14453 34.1893 8.62305 34.1893H14.3945C14.873 34.1893 15.2539 33.7206 15.2539 33.1444C15.2539 32.5682 14.873 32.1093 14.3945 32.1093Z" fill="#231F20"/>
<path d="M16.5625 26.2207C16.8945 26.5528 17.4902 26.4942 17.9004 26.084C18.3008 25.6836 18.3691 25.0782 18.0371 24.7461L14.043 20.752C13.7109 20.42 13.1152 20.4786 12.7051 20.8887C12.3047 21.2891 12.2363 21.8946 12.5683 22.2266L16.5625 26.2207Z" fill="#231F20"/>
<path d="M41.377 32.1288H35.6055C35.127 32.1288 34.7461 32.5975 34.7461 33.1737C34.7461 33.7499 35.127 34.2186 35.6055 34.2186H41.377C41.8555 34.2186 42.2363 33.7499 42.2363 33.1737C42.2461 32.5975 41.8555 32.1288 41.377 32.1288Z" fill="#231F20"/>
<path d="M33.457 26.2205L37.4511 22.2263C37.7831 21.8943 37.7245 21.2986 37.3144 20.8884C36.914 20.488 36.3085 20.4197 35.9765 20.7517L31.9823 24.7459C31.6503 25.0779 31.7089 25.6736 32.1191 26.0837C32.5195 26.4939 33.1249 26.5525 33.457 26.2205Z" fill="#231F20"/>
<path d="M25 24.6776C20.332 24.6776 16.5332 28.4862 16.5332 33.1541C16.5332 33.7206 16.9922 34.1893 17.5586 34.1893H18.6914H31.3086H32.4414C33.0078 34.1893 33.4765 33.7206 33.4765 33.1541C33.4765 28.4862 29.6777 24.6776 25 24.6776ZM18.6914 32.119C19.1894 29.0819 21.8262 26.7577 25 26.7577C28.1836 26.7577 30.8203 29.0819 31.3086 32.119H18.6914Z" fill="#231F20"/>
</svg>
