<svg width="50" height="54" viewBox="0 0 50 54" fill="none" xmlns="http://www.w3.org/2000/svg">
<path d="M24.9902 26.093C25.5762 26.093 26.0547 25.6816 26.0547 25.1648V18.9633C26.0547 18.457 25.5859 18.0352 24.9902 18.0352C24.4043 18.0352 23.9258 18.4465 23.9258 18.9633V25.1648C23.9355 25.6816 24.4043 26.093 24.9902 26.093Z" fill="#231F20"/>
<path d="M24.9902 27.8122C21.3672 27.8122 18.252 30.2485 16.9922 33.6868C16.7285 34.404 16.5332 35.1634 16.4453 35.9649H17.8223H18.584H31.2012C31.2695 35.9649 31.3379 35.9438 31.4063 35.9122C31.416 35.9333 31.416 35.9544 31.416 35.9649H33.5547C33.4668 35.1634 33.2715 34.404 33.0078 33.6868C31.7285 30.238 28.623 27.8122 24.9902 27.8122ZM19.3262 33.6763C20.4395 31.5352 22.5586 30.0903 24.9902 30.0903C27.4219 30.0903 29.5508 31.5352 30.6641 33.6763H19.3262Z" fill="#231F20"/>
<path d="M17.7735 29.3415C18.1837 28.8985 18.252 28.2446 17.9103 27.8754L13.8478 23.4879C13.5157 23.1293 12.9103 23.1926 12.4903 23.6356C12.0802 24.0786 12.0118 24.7325 12.3536 25.1016L16.4161 29.4891C16.7481 29.8583 17.3536 29.795 17.7735 29.3415Z" fill="#231F20"/>
<path d="M37.5099 23.6566C37.0998 23.2136 36.4943 23.1398 36.1525 23.5089L32.09 27.8964C31.758 28.255 31.8166 28.9089 32.2267 29.3625C32.6369 29.8054 33.2424 29.8793 33.5842 29.5101L37.6467 25.1226C37.9884 24.7535 37.9201 24.0996 37.5099 23.6566Z" fill="#231F20"/>
</svg>
