<svg width="25" height="25" viewBox="0 0 25 25" fill="none" xmlns="http://www.w3.org/2000/svg">
<g clip-path="url(#clip0)">
<path d="M3.90625 14.0625C3.90625 13.6719 4.29688 13.2813 4.6875 13.2813L18.75 13.2813C21.7969 13.2813 24.2188 15.7031 24.2188 18.75C24.2188 21.7969 21.7969 24.2187 18.75 24.2187C18.3594 24.2187 17.9688 23.8281 17.9688 23.4375C17.9688 23.0469 18.3594 22.6562 18.75 22.6562C20.9375 22.6562 22.6563 20.9375 22.6563 18.75C22.6563 16.5625 20.9375 14.8438 18.75 14.8438L4.6875 14.8438C4.29688 14.8438 3.90625 14.4531 3.90625 14.0625Z" fill="#1D1D1D"/>
<path d="M0.78125 11.7187C0.78125 11.3281 1.17188 10.9375 1.5625 10.9375L16.4063 10.9375C16.7969 10.9375 17.1875 11.3281 17.1875 11.7187C17.1875 12.1094 16.7969 12.5 16.4062 12.5L1.5625 12.5C1.17188 12.5 0.78125 12.1094 0.78125 11.7187Z" fill="#1D1D1D"/>
<path d="M3.90625 9.375C3.90625 8.98437 4.29688 8.59375 4.6875 8.59375L16.4063 8.59375C18.125 8.59375 19.5313 7.1875 19.5313 5.46875C19.5313 3.75 18.125 2.34375 16.4063 2.34375C16.0156 2.34375 15.625 1.95313 15.625 1.5625C15.625 1.17188 16.0156 0.781253 16.4063 0.781253C18.9844 0.781254 21.0938 2.89063 21.0938 5.46875C21.0938 8.04688 18.9844 10.1562 16.4062 10.1562L4.6875 10.1562C4.29688 10.1562 3.90625 9.76562 3.90625 9.375Z" fill="#1D1D1D"/>
</g>
<defs>
<clipPath id="clip0">
<rect width="25" height="25" fill="white" transform="translate(25 25) rotate(-180)"/>
</clipPath>
</defs>
</svg>
